<?xml version="1.0" standalone="no"?>
<!DOCTYPE svg PUBLIC "-//W3C//DTD SVG 20010904//EN"
 "http://www.w3.org/TR/2001/REC-SVG-20010904/DTD/svg10.dtd">
<svg version="1.0" xmlns="http://www.w3.org/2000/svg"
 width="209.000000pt" height="198.000000pt" viewBox="0 0 209.000000 198.000000"
 preserveAspectRatio="xMidYMid meet">

<g transform="translate(0.000000,198.000000) scale(0.100000,-0.100000)"
fill="#000000" stroke="none">
<path d="M898 1669 c-46 -24 -72 -61 -72 -104 0 -28 -5 -35 -37 -49 -43 -19
-65 -48 -74 -99 -10 -49 27 -87 83 -87 37 0 40 -2 51 -40 l12 -39 41 40 c50
48 101 78 92 54 -8 -19 7 -19 32 0 19 14 19 14 -1 16 -41 3 62 27 118 28 54 1
58 -1 77 -31 11 -18 20 -43 20 -56 0 -22 1 -22 22 -8 27 19 58 21 58 3 0 -25
-25 -37 -77 -37 -44 0 -53 3 -53 18 0 19 -18 42 -32 42 -5 0 -3 -9 4 -20 11
-16 10 -23 -5 -37 -13 -13 -20 -14 -29 -5 -34 34 -138 0 -222 -72 -69 -58 -66
-57 -127 -41 -30 8 -62 15 -71 15 -27 0 -22 -25 8 -45 27 -17 29 -17 148 1
104 17 196 -38 196 -117 l0 -39 -60 0 c-93 0 -180 -54 -180 -112 0 -36 30 -52
91 -46 34 4 46 2 42 -6 -4 -6 1 -5 10 3 10 8 20 11 24 8 3 -4 12 -2 19 3 6 6
16 10 20 9 20 -3 77 1 72 6 -2 3 -20 7 -39 9 -19 2 -37 4 -40 5 -4 0 8 17 27
36 21 23 42 35 59 35 21 0 26 4 21 16 -3 9 -6 18 -6 20 0 2 -7 4 -15 4 -9 0
-15 9 -15 25 0 22 2 24 19 14 26 -17 49 -5 66 33 8 18 14 25 15 16 0 -9 3 -23
6 -32 4 -11 1 -16 -10 -16 -12 0 -16 -10 -16 -45 0 -48 5 -44 -74 -60 -13 -3
-27 -12 -30 -21 -5 -14 -1 -15 31 -10 21 4 46 9 56 12 12 4 17 0 17 -15 0 -19
2 -19 34 -6 19 8 42 12 50 9 11 -4 16 0 16 14 0 16 9 22 43 27 56 10 77 22 77
44 0 18 -3 18 -47 5 -64 -19 -73 -18 -73 12 0 17 -6 28 -20 31 -19 5 -25 24
-21 63 5 39 15 42 20 5 6 -38 8 -40 41 -40 19 0 41 3 48 9 7 5 36 10 64 11 59
3 88 28 88 74 0 20 -2 23 -10 11 -8 -12 -10 -12 -11 5 0 11 -3 14 -6 7 -3 -9
-9 -10 -18 -2 -9 7 -16 6 -25 -5 -7 -8 -17 -12 -22 -9 -7 4 -9 -7 -6 -30 2
-20 0 -36 -4 -36 -4 0 -8 17 -9 38 0 20 -3 31 -6 24 -2 -6 -9 -10 -14 -6 -5 3
-9 -7 -9 -23 0 -36 -15 -61 -23 -40 -3 8 -3 25 0 38 4 15 3 20 -5 15 -7 -4
-12 -1 -12 6 0 8 -5 5 -11 -5 -6 -11 -9 -30 -6 -43 2 -13 0 -24 -4 -24 -5 0
-9 17 -10 38 0 20 -3 32 -6 25 -3 -10 -9 -10 -24 0 -16 10 -22 9 -32 -3 -7 -8
-25 -15 -42 -15 -16 0 -36 -4 -42 -9 -9 -5 -13 -4 -13 5 0 25 -20 -13 -21 -41
-1 -21 -2 -20 -11 10 -17 61 -52 85 -140 98 l-53 7 55 35 c55 34 96 41 180 31
25 -3 189 29 222 43 13 6 23 -4 47 -51 16 -32 30 -52 31 -45 0 8 5 10 12 6 7
-4 2 9 -10 30 -12 20 -22 39 -22 42 0 13 23 -1 53 -33 23 -24 40 -34 51 -30
23 9 20 59 -5 91 -17 21 -24 24 -40 16 -22 -13 -24 -3 -4 24 14 19 15 19 35 1
31 -28 34 -12 6 44 -36 69 -32 78 5 14 17 -29 35 -53 40 -53 5 0 9 17 10 38 1
20 5 48 10 62 6 17 7 1 4 -47 -3 -40 -1 -73 4 -73 12 0 21 25 21 56 0 29 16
64 30 64 5 0 4 -13 -2 -31 -6 -17 -8 -49 -4 -72 8 -61 23 -124 25 -107 1 13 2
13 11 0 14 -21 12 -9 -6 65 -15 59 -15 68 0 111 18 53 13 68 -20 61 -14 -2
-25 1 -28 9 -14 37 -66 -7 -66 -56 0 -23 -2 -22 -22 13 -25 43 -29 44 -52 18
-14 -15 -15 -24 -7 -39 12 -23 0 -53 -36 -90 -31 -30 -46 -28 -60 9 -12 31
-14 32 -62 26 -44 -5 -50 -4 -55 16 -8 32 -7 37 7 31 8 -3 25 0 40 5 62 24 32
117 -30 95 -20 -7 -28 -16 -28 -33 0 -14 5 -26 11 -28 7 -2 11 4 10 14 0 10 6
18 14 18 8 0 15 -9 15 -20 0 -15 -8 -21 -31 -23 -26 -3 -33 1 -38 20 -10 41
-7 55 19 66 52 24 53 112 2 147 -24 17 -99 20 -126 6 -12 -7 -28 -2 -60 20
-52 34 -99 37 -153 8z m109 -10 c15 -5 40 -22 55 -36 25 -24 28 -24 49 -9 33
23 90 20 118 -5 17 -16 21 -30 19 -57 -3 -32 -7 -38 -36 -47 -33 -9 -33 -11
-27 -52 l6 -43 -59 0 c-79 0 -148 -23 -211 -71 l-51 -39 -6 29 c-6 27 -9 29
-35 24 -16 -3 -42 0 -59 7 -25 10 -30 18 -30 45 0 43 32 82 78 96 36 10 37 12
34 51 -5 45 20 81 73 104 37 16 46 17 82 3z m503 -446 c0 -20 -18 -16 -30 7
-15 28 -1 49 17 25 7 -11 13 -25 13 -32z m-730 -89 c0 -2 -9 -4 -20 -4 -11 0
-20 4 -20 9 0 5 9 7 20 4 11 -3 20 -7 20 -9z m652 -16 c-7 -7 -12 -8 -12 -2 0
14 12 26 19 19 2 -3 -1 -11 -7 -17z m38 -22 c0 -7 -7 -19 -15 -26 -13 -10 -18
-11 -28 -1 -9 10 -8 15 7 27 25 18 36 18 36 0z m-312 -57 c-5 -35 -28 -36 -28
-1 0 16 3 32 7 36 11 11 25 -10 21 -35z m-128 -113 c0 -20 -63 -72 -104 -86
-61 -20 -99 16 -57 54 42 38 161 62 161 32z"/>
<path d="M1145 1370 c-4 -6 7 -10 25 -10 18 0 29 4 25 10 -3 6 -15 10 -25 10
-10 0 -22 -4 -25 -10z"/>
<path d="M1905 1247 c92 -289 18 -631 -182 -848 -123 -132 -290 -231 -456
-269 -215 -50 -493 -2 -670 114 -15 10 -27 16 -27 13 0 -10 144 -100 207 -128
199 -91 456 -94 671 -8 245 97 428 305 508 576 35 122 35 296 0 434 -21 83
-61 189 -70 189 -2 0 7 -33 19 -73z"/>
<path d="M1350 1186 c0 -26 4 -36 16 -36 11 0 14 8 12 32 -4 46 -28 49 -28 4z"/>
<path d="M1650 1155 c-9 -16 -22 -25 -38 -25 -54 0 -126 -60 -107 -90 15 -24
94 -2 124 34 8 9 17 16 21 16 10 0 30 -89 30 -130 0 -17 5 -30 11 -30 17 0 6
134 -13 162 -9 14 -13 36 -10 56 5 38 0 41 -18 7z m-31 -62 c-15 -17 -69 -43
-91 -43 -17 0 9 25 47 44 42 22 62 22 44 -1z"/>
<path d="M580 959 c20 -7 18 -8 -14 -4 -38 4 -101 -21 -150 -59 -21 -17 -17
-50 12 -86 l18 -22 29 43 30 44 6 -90 c3 -49 6 -85 7 -79 1 7 22 15 47 18 l45
7 0 79 c0 70 -2 79 -20 85 -33 10 -12 25 35 25 59 0 89 -29 82 -81 -7 -50 -34
-89 -63 -89 -13 0 -24 -4 -24 -10 0 -5 6 -7 13 -5 6 2 30 7 51 10 22 3 42 8
44 10 3 3 11 0 17 -5 9 -8 18 3 34 41 25 57 23 82 -10 124 -31 38 -78 55 -151
54 -50 -1 -58 -3 -38 -10z"/>
<path d="M1414 898 c-11 -12 -13 -18 -5 -13 15 9 36 12 95 14 51 1 44 7 -20
14 -45 5 -55 3 -70 -15z"/>
<path d="M1623 838 c-35 -22 -43 -23 -43 0 -1 16 -1 16 -11 0 -12 -21 -59 -24
-78 -5 -11 10 -12 9 -6 -3 5 -8 17 -21 27 -28 33 -24 14 -118 -34 -169 -25
-27 -32 -28 -52 -7 -21 21 -20 78 3 148 18 56 18 57 -1 40 -17 -16 -28 -20
-75 -26 -17 -2 -33 -85 -26 -134 4 -31 1 -45 -13 -58 -17 -18 -18 -18 -31 0
-7 10 -13 44 -13 78 0 76 -8 110 -24 98 -18 -15 -65 -20 -70 -8 -2 6 -5 -17
-5 -51 -1 -53 -5 -67 -33 -104 -18 -23 -50 -51 -71 -62 -38 -19 -39 -19 -58
-1 -10 11 -21 33 -25 50 -5 29 -3 32 25 37 43 9 96 51 115 92 18 37 21 60 5
32 -6 -9 -14 -15 -19 -12 -5 3 -12 1 -15 -5 -5 -8 -11 -8 -20 0 -9 8 -15 3
-25 -19 -13 -32 -57 -78 -66 -69 -3 4 -1 22 4 42 10 33 9 35 -8 26 -26 -14
-60 -12 -61 3 0 6 -7 -4 -16 -23 -22 -51 -34 -54 -66 -17 -16 19 -24 24 -20
13 5 -15 3 -18 -9 -14 -8 4 -21 2 -29 -2 -8 -5 -19 -4 -28 3 -8 7 -5 -5 8 -26
17 -28 20 -38 9 -42 -7 -3 -38 -13 -68 -24 -30 -10 -63 -22 -72 -26 -16 -6
-18 0 -18 51 0 49 -2 55 -13 41 -16 -23 -74 -39 -81 -24 -2 7 -5 -9 -5 -36 -1
-45 1 -48 29 -53 l30 -6 -36 -42 c-28 -32 -34 -48 -32 -75 9 -104 198 -101
304 6 48 47 67 90 68 150 0 29 4 53 8 53 4 0 8 -9 8 -20 0 -27 22 -70 48 -93
50 -46 155 -21 208 49 l26 34 28 -30 c35 -37 74 -39 123 -6 31 21 41 23 69 15
18 -5 45 -7 61 -3 56 12 126 112 127 180 0 25 6 34 29 44 37 15 78 57 56 57
-8 0 -27 -9 -42 -19z m-837 -290 c-15 -93 -79 -158 -156 -158 -47 0 -70 16
-70 49 0 54 46 93 154 132 77 27 80 26 72 -23z"/>
<path d="M1303 491 c-4 -18 -8 -19 -20 -9 -12 9 -21 8 -48 -6 -19 -10 -40 -16
-48 -13 -8 3 -27 -3 -43 -14 -16 -10 -37 -16 -46 -13 -14 4 -18 0 -18 -17 0
-22 -1 -22 -16 -7 -16 16 -25 15 -71 -7 -3 -1 14 -118 22 -152 3 -13 12 -23
19 -23 11 0 13 10 9 40 -3 24 -2 40 4 40 6 0 16 14 24 31 12 30 13 30 20 10
10 -25 34 -28 47 -5 5 9 14 14 20 10 7 -4 6 -15 -5 -35 -20 -35 -11 -61 21
-61 32 0 40 14 41 72 1 53 7 63 31 54 15 -6 15 -8 0 -31 -21 -32 -20 -52 4
-65 27 -15 64 21 54 53 -11 37 -10 41 14 45 12 2 22 7 22 12 0 5 12 10 28 12
24 3 27 7 29 43 l1 40 -7 -35 c-8 -36 -17 -28 -23 20 -4 34 -57 43 -65 11z
m37 -41 c0 -22 -4 -40 -10 -40 -11 0 -14 63 -3 73 11 12 13 8 13 -33z m-81
-14 c-13 -27 -29 -35 -29 -14 0 13 31 50 37 44 2 -2 -2 -15 -8 -30z m34 -38
c-5 -11 -33 -10 -33 0 0 4 6 20 13 35 l12 27 6 -28 c3 -15 4 -30 2 -34z m-125
17 c-6 -13 -15 -22 -20 -19 -5 3 -2 15 8 25 23 25 26 24 12 -6z m46 -19 c-7
-31 -22 -42 -36 -28 -6 6 -4 21 7 42 19 38 40 28 29 -14z m-84 -19 c0 -24 -3
-28 -10 -17 -13 20 -13 63 0 55 6 -3 10 -21 10 -38z m-74 12 c3 -6 -1 -18 -10
-27 -15 -15 -16 -14 -16 11 0 27 13 36 26 16z m221 -73 c-4 -9 -11 -16 -17
-16 -11 0 -14 33 -3 43 11 11 26 -10 20 -27z m-87 -15 c0 -23 -16 -36 -25 -21
-9 14 1 40 15 40 5 0 10 -9 10 -19z"/>
<path d="M1072 468 c5 -15 28 -18 29 -3 0 6 -7 12 -17 13 -10 3 -15 -1 -12
-10z"/>
</g>
</svg>
